<svg xmlns="http://www.w3.org/2000/svg" viewBox="0 0 256 256" shape-rendering="crispEdges" role="img" aria-labelledby="title desc">
  <title id="title">千锤百炼像素图标</title>
  <desc id="desc">像素风锤子与火花组成的方形图标，象征千锤百炼。</desc>

  <rect width="256" height="256" fill="#171922"/>
  <rect x="20" y="20" width="216" height="216" rx="18" fill="#212433"/>
  <rect x="28" y="28" width="200" height="200" rx="14" fill="#2a3042"/>

  <!-- sparks -->
  <rect x="50" y="52" width="12" height="12" fill="#ffcb5b"/>
  <rect x="38" y="64" width="12" height="12" fill="#ffcb5b"/>
  <rect x="60" y="72" width="12" height="12" fill="#ffcb5b"/>
  <rect x="198" y="52" width="12" height="12" fill="#ffcb5b"/>
  <rect x="208" y="64" width="12" height="12" fill="#ffcb5b"/>
  <rect x="188" y="72" width="12" height="12" fill="#ffcb5b"/>

  <!-- anvil shadow -->
  <rect x="74" y="162" width="108" height="16" fill="#0e1016"/>

  <!-- anvil -->
  <rect x="60" y="138" width="136" height="16" fill="#0f1118"/>
  <rect x="52" y="122" width="152" height="16" fill="#1f2432"/>
  <rect x="44" y="106" width="168" height="16" fill="#31384a"/>
  <rect x="60" y="90" width="136" height="16" fill="#495268"/>
  <rect x="76" y="74" width="104" height="16" fill="#657086"/>
  <rect x="92" y="58" width="72" height="16" fill="#8791a4"/>

  <rect x="84" y="90" width="88" height="16" fill="#aeb6c6"/>
  <rect x="72" y="106" width="112" height="16" fill="#c8cdd8"/>
  <rect x="64" y="122" width="128" height="16" fill="#e3e6ed"/>

  <!-- hammer head -->
  <rect x="86" y="40" width="84" height="16" fill="#11131a"/>
  <rect x="74" y="56" width="112" height="16" fill="#11131a"/>
  <rect x="66" y="72" width="128" height="16" fill="#11131a"/>

  <rect x="92" y="44" width="72" height="8" fill="#8f949d"/>
  <rect x="82" y="60" width="92" height="8" fill="#b5bbc5"/>
  <rect x="74" y="76" width="108" height="8" fill="#dce0e6"/>

  <rect x="100" y="52" width="56" height="8" fill="#e7ebf0"/>
  <rect x="92" y="68" width="72" height="8" fill="#f4f6f8"/>

  <!-- handle -->
  <rect x="120" y="86" width="16" height="18" fill="#1a120d"/>
  <rect x="116" y="104" width="24" height="18" fill="#1a120d"/>
  <rect x="112" y="122" width="32" height="18" fill="#1a120d"/>
  <rect x="108" y="140" width="40" height="18" fill="#1a120d"/>
  <rect x="104" y="158" width="48" height="18" fill="#1a120d"/>
  <rect x="100" y="176" width="56" height="18" fill="#1a120d"/>
  <rect x="96" y="194" width="64" height="18" fill="#1a120d"/>

  <rect x="124" y="86" width="8" height="18" fill="#7a4b23"/>
  <rect x="120" y="104" width="16" height="18" fill="#8e5a2b"/>
  <rect x="116" y="122" width="24" height="18" fill="#a36a33"/>
  <rect x="112" y="140" width="32" height="18" fill="#bb7a3e"/>
  <rect x="108" y="158" width="40" height="18" fill="#cd8d51"/>
  <rect x="104" y="176" width="48" height="18" fill="#de9f66"/>
  <rect x="100" y="194" width="56" height="18" fill="#f0b87d"/>

  <!-- grip cap -->
  <rect x="92" y="210" width="72" height="16" fill="#11131a"/>
  <rect x="96" y="210" width="64" height="16" fill="#5d3416"/>

  <!-- highlight line -->
  <rect x="128" y="90" width="6" height="120" fill="#f6d9ab"/>
</svg>
